<svg xmlns="http://www.w3.org/2000/svg" xmlns:xlink="http://www.w3.org/1999/xlink" width="512" height="512" x="0" y="0" viewBox="0 0 32 32" style="enable-background:new 0 0 512 512" xml:space="preserve"><g><path d="M25 2H7a5 5 0 0 0-5 5v18a5 5 0 0 0 5 5h18a5 5 0 0 0 5-5V7a5 5 0 0 0-5-5zm3 23a3 3 0 0 1-3 3H7a3 3 0 0 1-3-3V7a3 3 0 0 1 3-3h18a3 3 0 0 1 3 3zm-2.22-14.18A14.75 14.75 0 0 0 20.72 7a12 12 0 0 0-9.45 0 14.81 14.81 0 0 0-5 3.85 1 1 0 0 0-.21.74 1 1 0 0 0 .37.67l4.5 3.55a.94.94 0 0 0 .79.2 1 1 0 0 0 .68-.46 4.3 4.3 0 0 1 3.6-2.22 4.3 4.3 0 0 1 3.65 2.19 1 1 0 0 0 .68.46.47.47 0 0 0 .17 0 1 1 0 0 0 .62-.22l4.5-3.55a1 1 0 0 0 .37-.67 1 1 0 0 0-.21-.72zm-5.09 2.75A6.18 6.18 0 0 0 17 11.43V10a1 1 0 0 0-2 0v1.43a6.18 6.18 0 0 0-3.69 2.14l-2.85-2.25a12.78 12.78 0 0 1 3.61-2.51 10 10 0 0 1 7.86 0 12.78 12.78 0 0 1 3.61 2.51z" data-name="Layer 15" fill="#efb143"/></g></svg>
