<svg xmlns="http://www.w3.org/2000/svg" height="512" viewBox="0 0 512 512" width="512"><g><path d="m471 511h-430c-22.056 0-40-17.944-40-40v-390c0-22.056 17.944-40 40-40h30c5.522 0 10 4.478 10 10v19.523c0 5.587 4.32 10.284 9.632 10.47 5.546.24 10.368-4.223 10.368-9.993v-20c0-5.522 4.477-10 10-10h70c5.522 0 10 4.478 10 10v19.523c0 5.587 4.32 10.284 9.632 10.47 5.584.24 10.368-4.263 10.368-9.993v-20c0-5.522 4.477-10 10-10h70c5.522 0 10 4.478 10 10v19.523c0 5.587 4.32 10.284 9.632 10.47 5.53.239 10.368-4.211 10.368-9.993v-20c0-5.522 4.478-10 10-10h70c5.522 0 10 4.478 10 10v19.523c0 5.587 4.32 10.284 9.632 10.47 5.565.24 10.368-4.241 10.368-9.993v-20c0-5.522 4.478-10 10-10h30c22.056 0 40 17.944 40 40v390c0 22.056-17.944 40-40 40zm-430-450c-11.028 0-20 8.972-20 20v390c0 11.028 8.972 20 20 20h430c11.028 0 20-8.972 20-20v-390c0-11.028-8.972-20-20-20h-20v10c0 16.964-14.004 30.569-31.068 29.981-16.224-.568-28.932-13.947-28.932-30.458v-9.523h-50v10c0 16.973-14.014 30.569-31.068 29.981-16.224-.568-28.932-13.947-28.932-30.458v-9.523h-50v10c0 16.951-13.993 30.57-31.068 29.981-16.224-.568-28.932-13.947-28.932-30.458v-9.523h-50v10c0 16.92-13.959 30.57-31.068 29.981-16.224-.568-28.932-13.947-28.932-30.458v-9.523z"/><path d="m501 161h-490c-5.523 0-10-4.477-10-10s4.477-10 10-10h490c5.522 0 10 4.477 10 10s-4.478 10-10 10z"/><path d="m421 101c-16.542 0-30-13.458-30-30v-40c0-16.542 13.458-30 30-30 16.576 0 30 13.425 30 30v40c0 16.542-13.458 30-30 30zm0-80c-5.514 0-10 4.486-10 10v40c0 5.514 4.486 10 10 10s10-4.486 10-10v-40c0-5.519-4.479-10-10-10z"/><path d="m311 101c-16.542 0-30-13.458-30-30v-40c0-16.542 13.458-30 30-30 16.576 0 30 13.425 30 30v40c0 16.542-13.458 30-30 30zm0-80c-5.514 0-10 4.486-10 10v40c0 5.514 4.486 10 10 10s10-4.486 10-10v-40c0-5.519-4.479-10-10-10z"/><path d="m201 101c-16.542 0-30-13.458-30-30v-40c0-16.542 13.458-30 30-30 16.576 0 30 13.425 30 30v40c0 16.542-13.458 30-30 30zm0-80c-5.514 0-10 4.486-10 10v40c0 5.514 4.486 10 10 10s10-4.486 10-10v-40c0-5.519-4.479-10-10-10z"/><path d="m91 101c-16.542 0-30-13.458-30-30v-40c0-16.542 13.458-30 30-30 16.575 0 30 13.425 30 30v40c0 16.542-13.458 30-30 30zm0-80c-5.514 0-10 4.486-10 10v40c0 5.514 4.486 10 10 10s10-4.486 10-10v-40c0-5.519-4.479-10-10-10z"/><path d="m131 261h-50c-5.523 0-10-4.478-10-10v-50c0-5.523 4.477-10 10-10h50c5.522 0 10 4.477 10 10v50c0 5.522-4.478 10-10 10zm-40-20h30v-30h-30z"/><path d="m231 261h-50c-5.523 0-10-4.478-10-10v-50c0-5.523 4.477-10 10-10h50c5.523 0 10 4.477 10 10v50c0 5.522-4.477 10-10 10zm-40-20h30v-30h-30z"/><path d="m331 261h-50c-5.522 0-10-4.478-10-10v-50c0-5.523 4.478-10 10-10h50c5.522 0 10 4.477 10 10v50c0 5.522-4.478 10-10 10zm-40-20h30v-30h-30z"/><path d="m431 261h-50c-5.522 0-10-4.478-10-10v-50c0-5.523 4.478-10 10-10h50c5.522 0 10 4.477 10 10v50c0 5.522-4.478 10-10 10zm-40-20h30v-30h-30z"/><path d="m331 361h-50c-5.522 0-10-4.478-10-10v-50c0-5.522 4.478-10 10-10h50c5.522 0 10 4.478 10 10v50c0 5.522-4.478 10-10 10zm-40-20h30v-30h-30z"/><path d="m431 361h-50c-5.522 0-10-4.478-10-10v-50c0-5.522 4.478-10 10-10h50c5.522 0 10 4.478 10 10v50c0 5.522-4.478 10-10 10zm-40-20h30v-30h-30z"/><path d="m331 461h-50c-5.522 0-10-4.478-10-10v-50c0-5.522 4.478-10 10-10h50c5.522 0 10 4.478 10 10v50c0 5.522-4.478 10-10 10zm-40-20h30v-30h-30z"/><path d="m431 461h-50c-5.522 0-10-4.478-10-10v-50c0-5.522 4.478-10 10-10h50c5.522 0 10 4.478 10 10v50c0 5.522-4.478 10-10 10zm-40-20h30v-30h-30z"/><path d="m131 361h-50c-5.523 0-10-4.478-10-10v-50c0-5.522 4.477-10 10-10h50c5.522 0 10 4.478 10 10v50c0 5.522-4.478 10-10 10zm-40-20h30v-30h-30z"/><path d="m231 361h-50c-5.523 0-10-4.478-10-10v-50c0-5.522 4.477-10 10-10h50c5.523 0 10 4.478 10 10v50c0 5.522-4.477 10-10 10zm-40-20h30v-30h-30z"/><path d="m131 461h-50c-5.523 0-10-4.478-10-10v-50c0-5.522 4.477-10 10-10h50c5.522 0 10 4.478 10 10v50c0 5.522-4.478 10-10 10zm-40-20h30v-30h-30z"/><path d="m231 461h-50c-5.523 0-10-4.478-10-10v-50c0-5.522 4.477-10 10-10h50c5.523 0 10 4.478 10 10v50c0 5.522-4.477 10-10 10zm-40-20h30v-30h-30z"/></g></svg>
