<svg width="130" height="130" viewBox="0 0 130 130" fill="none" xmlns="http://www.w3.org/2000/svg">
<g clip-path="url(#clip0_2414_1411)">
<path d="M108.305 62.8709L108.029 62.6109C107.85 62.4321 107.655 62.2534 107.574 62.1721C106.241 60.7421 104.405 60.0271 102.39 60.1246C100.261 60.2384 98.2624 61.2946 97.0436 62.9521C96.7674 63.3096 96.5399 63.6996 96.3124 64.0896C96.1661 64.3496 96.0036 64.6096 95.8411 64.8534C95.6461 65.1296 95.3861 65.1946 95.2399 65.2109C95.0936 65.2271 94.8336 65.2271 94.5899 65.0484C94.3461 64.8534 94.1186 64.6259 93.9074 64.4146C93.5824 64.1059 93.2574 63.7809 92.8999 63.5046C91.2261 62.2046 88.9999 61.7659 86.9524 62.2209C86.2699 57.3296 83.9299 52.8771 80.3224 49.4971C80.3224 49.1234 80.3224 48.7496 80.2899 48.3759C80.2736 48.0671 80.2411 47.7746 80.2574 47.4659C80.2574 47.1409 80.4524 46.9296 80.5499 46.8321C80.6474 46.7346 80.8911 46.5884 81.1836 46.6046C81.4924 46.6371 81.8011 46.6859 82.1099 46.7509C82.5486 46.8321 83.0036 46.9134 83.4424 46.9296C86.3186 47.1246 89.1461 45.4346 90.3486 42.8184C90.7224 42.0059 90.3486 41.0309 89.5361 40.6734C88.7236 40.2996 87.7486 40.6734 87.3911 41.4859C86.7574 42.8834 85.1811 43.7934 83.6699 43.7121C83.3449 43.6959 83.0036 43.6309 82.6786 43.5659C82.2886 43.5009 81.8824 43.4196 81.4761 43.3871C80.3549 43.2896 79.2336 43.6634 78.3886 44.4271C77.6574 45.0934 77.2024 46.0034 77.0724 46.9784C76.3574 46.5234 75.6261 46.0846 74.8461 45.6946C72.2136 44.3784 69.4186 43.6309 66.6236 43.4196C66.6236 43.4196 66.6236 43.4034 66.6236 43.3871C65.8274 42.0871 65.9249 40.2671 66.8674 39.0484C67.0786 38.7884 67.3061 38.5446 67.5499 38.3009C67.8261 38.0084 68.1024 37.7321 68.3624 37.4071C69.0774 36.5296 69.3861 35.3921 69.2399 34.2709C69.0774 33.1334 68.4599 32.1096 67.5336 31.4434C67.2086 31.2159 66.8674 31.0046 66.5261 30.8096C66.2336 30.6471 65.9411 30.4684 65.6811 30.2734C64.8036 29.6234 64.2186 28.5021 64.1536 27.3484C64.1211 26.7471 64.2024 25.6096 65.2749 24.6184C65.4211 24.4559 65.5674 24.3096 65.7136 24.1471L66.0061 23.8546C66.6236 23.2046 66.5911 22.1809 65.9411 21.5634C65.2911 20.9459 64.2674 20.9784 63.6499 21.6284L63.3899 21.9046C63.2111 22.0834 63.0324 22.2784 62.9674 22.3596C61.5374 23.6921 60.8061 25.5284 60.9199 27.5434C61.0336 29.6721 62.0899 31.6709 63.7474 32.8896C64.1049 33.1659 64.4949 33.3934 64.8849 33.6209C65.1449 33.7671 65.4049 33.9296 65.6486 34.0921C65.9249 34.2871 65.9899 34.5471 66.0061 34.6934C66.0224 34.8396 66.0224 35.0996 65.8436 35.3434C65.6486 35.5871 65.4211 35.8146 65.2099 36.0259C64.8849 36.3509 64.5761 36.6759 64.2999 37.0334C62.9024 38.8209 62.5124 41.2421 63.1299 43.3871C59.1324 43.7121 55.2649 45.1421 51.9661 47.6609C51.9661 47.6609 51.9499 47.6609 51.9336 47.6771C51.9336 47.6771 51.9336 47.6771 51.9174 47.6771C51.4624 47.6609 51.0074 47.6771 50.5524 47.7096C50.2436 47.7259 49.9511 47.7421 49.6424 47.7421C49.3174 47.7421 49.1061 47.5471 49.0086 47.4496C48.9111 47.3521 48.7649 47.1246 48.7811 46.8159C48.8136 46.5071 48.8624 46.1984 48.9274 45.8896C49.0086 45.4346 49.0899 44.9959 49.1061 44.5409C49.3011 41.6646 47.6111 38.8371 44.9949 37.6346C44.1824 37.2609 43.2074 37.6346 42.8499 38.4471C42.4924 39.2596 42.8499 40.2346 43.6624 40.5921C45.0599 41.2259 45.9861 42.7859 45.8886 44.3134C45.8724 44.6546 45.8074 44.9796 45.7424 45.3046C45.6774 45.6946 45.5961 46.1009 45.5636 46.5071C45.4661 47.6284 45.8399 48.7496 46.6036 49.5946C47.1399 50.1959 47.8549 50.6184 48.6186 50.8296C45.7911 54.1771 43.9224 58.3696 43.4674 62.7084C43.3861 63.4071 43.3536 64.1221 43.3536 64.8209C42.0536 65.5846 40.2661 65.4871 39.0799 64.5446C38.8199 64.3334 38.5761 64.1059 38.3324 63.8621C38.0399 63.5859 37.7636 63.3096 37.4386 63.0496C36.5611 62.3346 35.4236 62.0259 34.3024 62.1721C33.1649 62.3346 32.1411 62.9521 31.4749 63.8784C31.2474 64.2034 31.0524 64.5446 30.8411 64.8859C30.6786 65.1784 30.4999 65.4709 30.3049 65.7309C29.6549 66.6084 28.5336 67.1934 27.3799 67.2584C26.7786 67.3071 25.6411 67.2096 24.6499 66.1534C24.4874 66.0071 24.3411 65.8609 24.1786 65.7146L23.8861 65.4221C23.2361 64.8046 22.2124 64.8371 21.5949 65.4871C20.9774 66.1371 21.0099 67.1609 21.6599 67.7784L21.9361 68.0384C22.1149 68.2171 22.3099 68.3959 22.3911 68.4609C23.6261 69.7934 25.3161 70.5084 27.1686 70.5084C27.2986 70.5084 27.4449 70.5084 27.5749 70.5084C29.7036 70.3946 31.7024 69.3384 32.9211 67.6809C33.1974 67.3234 33.4249 66.9334 33.6524 66.5434C33.7986 66.2834 33.9611 66.0234 34.1236 65.7796C34.3186 65.5034 34.5786 65.4384 34.7249 65.4221C34.8711 65.4059 35.1311 65.4059 35.3749 65.5846C35.6186 65.7796 35.8461 66.0071 36.0574 66.2184C36.3824 66.5434 36.7074 66.8521 37.0649 67.1284C38.8686 68.5421 41.3224 68.9321 43.4836 68.2821C44.1336 72.7834 46.1649 76.8459 49.1224 80.0471C49.1224 80.1609 49.1061 80.2746 49.0899 80.4046C49.0736 80.8596 49.0899 81.3146 49.1224 81.7534C49.1386 82.0621 49.1711 82.3546 49.1549 82.6634C49.1549 82.9884 48.9599 83.1996 48.8624 83.2971C48.7649 83.3946 48.5536 83.5409 48.2286 83.5246C47.9199 83.4921 47.6111 83.4434 47.3024 83.3784C46.8474 83.2971 46.4086 83.2159 45.9536 83.1996C43.0774 83.0046 40.2499 84.6946 39.0474 87.3109C38.6736 88.1234 39.0474 89.0984 39.8599 89.4559C40.0711 89.5534 40.3149 89.6021 40.5261 89.6021C41.1436 89.6021 41.7286 89.2446 42.0049 88.6434C42.6386 87.2459 44.1986 86.3196 45.7261 86.4171C46.0674 86.4334 46.3924 86.4984 46.7174 86.5634C47.1074 86.6284 47.5136 86.7096 47.9199 86.7421C49.0249 86.8396 50.1624 86.4659 51.0074 85.7021C51.8036 84.9871 52.2749 83.9796 52.3561 82.9234C55.8011 85.4259 59.9774 86.9371 64.4786 87.0834C64.9986 88.3184 64.8524 89.8459 64.0236 90.9021C63.8124 91.1621 63.5849 91.4059 63.3411 91.6496C63.0649 91.9421 62.7886 92.2184 62.5124 92.5434C61.7974 93.4209 61.4886 94.5584 61.6349 95.6796C61.7811 96.8171 62.4149 97.8409 63.3411 98.5071C63.6661 98.7346 64.0074 98.9296 64.3486 99.1409C64.6411 99.3034 64.9336 99.4821 65.1936 99.6771C66.0711 100.327 66.6561 101.448 66.7211 102.602C66.7536 103.203 66.6724 104.341 65.6161 105.332C65.4861 105.478 65.3399 105.625 65.1936 105.787L64.8849 106.112C64.2674 106.762 64.2999 107.786 64.9499 108.403C65.2586 108.696 65.6649 108.842 66.0711 108.842C66.5099 108.842 66.9324 108.68 67.2574 108.338L67.5336 108.046C67.7124 107.867 67.8749 107.688 67.9399 107.607C69.3699 106.275 70.1011 104.438 69.9874 102.423C69.8736 100.295 68.8174 98.2959 67.1599 97.0771C66.8024 96.8009 66.4124 96.5734 66.0224 96.3459C65.7624 96.1996 65.5024 96.0371 65.2586 95.8746C64.9824 95.6796 64.9174 95.4034 64.9011 95.2734C64.8849 95.1271 64.8849 94.8671 65.0636 94.6234C65.2586 94.3796 65.4861 94.1521 65.6974 93.9409C66.0061 93.6159 66.3311 93.2909 66.6074 92.9334C67.9236 91.2596 68.3624 89.0171 67.8911 86.9534C72.1324 86.4334 75.9999 84.7109 79.1524 82.1109C79.2011 82.1109 79.2499 82.1109 79.3149 82.1109C79.7699 82.1271 80.2249 82.1109 80.6636 82.0784C80.9724 82.0621 81.2811 82.0459 81.5736 82.0459C81.8986 82.0459 82.1099 82.2409 82.2074 82.3384C82.3049 82.4359 82.4511 82.6634 82.4349 82.9721C82.4024 83.2809 82.3536 83.5896 82.2886 83.8984C82.2074 84.3534 82.1261 84.7921 82.1099 85.2471C81.9149 88.1234 83.6049 90.9509 86.2211 92.1534C86.4324 92.2509 86.6761 92.2996 86.8874 92.2996C87.5049 92.2996 88.0899 91.9421 88.3661 91.3409C88.7399 90.5284 88.3661 89.5534 87.5536 89.1959C86.1561 88.5621 85.2299 87.0021 85.3274 85.4746C85.3436 85.1334 85.4086 84.8084 85.4736 84.4834C85.5386 84.0934 85.6199 83.6871 85.6524 83.2809C85.7499 82.1596 85.3761 81.0384 84.6124 80.1934C84.0111 79.5109 83.1824 79.0721 82.3049 78.8934C85.2461 75.2371 87.0174 70.6221 87.1149 65.6009C88.3499 65.1296 89.8286 65.2759 90.8686 66.0884C91.1286 66.2996 91.3724 66.5271 91.6161 66.7709C91.9086 67.0471 92.1849 67.3234 92.5099 67.5996C93.2411 68.1846 94.1511 68.5096 95.0936 68.5096C95.2724 68.5096 95.4674 68.5096 95.6461 68.4771C96.7836 68.3146 97.8074 67.6971 98.4574 66.7709C98.6849 66.4459 98.8799 66.1046 99.0911 65.7634C99.2536 65.4709 99.4324 65.1784 99.6274 64.9184C100.277 64.0409 101.399 63.4559 102.552 63.3909C103.154 63.3584 104.291 63.4396 105.282 64.5121C105.445 64.6584 105.591 64.8046 105.754 64.9509L106.046 65.2434C106.696 65.8609 107.72 65.8284 108.337 65.1784C108.955 64.5284 108.922 63.5046 108.272 62.8871L108.305 62.8709ZM65.1936 83.8984C62.8861 83.8984 60.6761 83.4759 58.6286 82.6959C59.6849 82.9071 60.7574 83.0371 61.8461 83.0696C67.8749 83.3134 73.0749 80.8921 76.0974 76.4396C78.7136 72.5721 79.2986 66.9821 77.5761 62.1884C76.9261 60.3846 75.9999 58.8409 74.8461 57.5409C74.8136 57.4921 74.7811 57.4434 74.7486 57.3946C73.8386 56.0946 72.6849 54.8921 71.1899 54.3234C70.6861 54.1446 70.1499 54.0796 69.6136 54.0796C69.4836 54.0471 69.3699 53.9821 69.2561 53.9496C68.4761 53.7221 67.6961 54.1284 67.3549 54.8271C67.1761 54.9734 66.9811 55.0871 66.8349 55.2659C65.4536 56.9884 66.3799 59.6371 67.9074 61.2134C69.4349 62.8059 71.4986 63.8296 72.9286 65.5034C74.0336 66.8034 74.7811 68.4284 75.1061 70.1184C74.8299 71.7596 74.2774 73.3034 73.3999 74.5871C71.0274 78.0971 66.8836 79.9984 61.9599 79.7871C56.2074 79.5596 50.8774 76.5859 48.3911 72.2146C46.9286 69.6309 46.3111 66.3646 46.6524 63.0334C47.1724 58.0446 49.8861 53.2509 53.8836 50.2121C59.5386 45.9221 66.8186 45.3046 73.3511 48.5546C79.8349 51.7721 83.8649 58.1259 83.8649 65.1459C83.8649 75.4646 75.4636 83.8496 65.1611 83.8496L65.1936 83.8984Z" fill="white"/>
</g>
<defs>
<clipPath id="clip0_2414_1411">
<rect width="87.685" height="87.75" fill="white" transform="translate(21.125 21.125)"/>
</clipPath>
</defs>
</svg>
