<svg width="130" height="130" viewBox="0 0 130 130" fill="none" xmlns="http://www.w3.org/2000/svg">
<g clip-path="url(#clip0_2414_1414)">
<path d="M61.9614 43.0787C68.0064 43.0787 72.9301 38.155 72.9301 32.11C72.9301 26.065 68.0064 21.125 61.9614 21.125C55.9164 21.125 50.9926 26.0487 50.9926 32.0937C50.9926 38.1387 55.9164 43.0625 61.9614 43.0625V43.0787ZM61.9614 24.375C66.2189 24.375 69.6801 27.8362 69.6801 32.0937C69.6801 36.3512 66.2189 39.8125 61.9614 39.8125C57.7039 39.8125 54.2426 36.3512 54.2426 32.0937C54.2426 27.8362 57.7039 24.375 61.9614 24.375ZM61.6851 53.755C67.5839 53.755 73.4989 53.3325 79.3164 52.4875L80.2101 52.3575C85.6051 51.5775 91.7151 50.7 96.5739 47.45C98.8814 45.9062 100.23 43.6475 100.181 41.405C100.149 39.9262 99.5314 38.6262 98.9951 37.6675C97.3214 34.6287 94.9001 32.0125 92.0076 30.095C90.9189 29.38 89.4564 28.5512 87.7176 28.5187C86.0276 28.4862 84.5001 29.2337 83.4764 30.485C82.4364 31.7362 82.0139 33.4262 82.3226 35.0187C82.5014 35.8962 83.3464 36.465 84.2239 36.3025C85.1014 36.1237 85.6864 35.2787 85.5076 34.4012C85.3776 33.7675 85.5564 33.0687 85.9789 32.5812C86.3851 32.0775 86.9864 31.7525 87.6851 31.785C88.5626 31.785 89.4889 32.3375 90.2039 32.8087C92.6576 34.4337 94.7051 36.66 96.1351 39.2437C96.4926 39.8775 96.8989 40.7225 96.9151 41.4862C96.9476 42.8025 95.8101 44.0375 94.7539 44.7525C93.4539 45.63 92.0239 46.2962 90.5289 46.8325C90.2364 46.865 89.9276 46.865 89.6351 46.8487C89.1314 46.8162 88.6114 46.605 88.1076 46.475C86.9376 46.1825 85.7514 45.9062 84.5814 45.6137C82.3064 45.0612 80.0151 44.4925 77.6751 44.5412C76.9926 44.5412 76.3101 44.6225 75.6439 44.7362C74.4901 44.9475 73.3851 45.3537 72.3939 45.9875C71.5164 46.5562 70.7364 47.32 70.2001 48.2137C69.6639 49.0912 68.9164 49.79 67.9414 50.1637C67.9739 50.1637 68.1201 50.2125 68.2501 50.2937C64.2526 50.5212 60.2226 50.5375 56.2251 50.3587C56.2901 50.3262 56.3389 50.31 56.3714 50.31C55.3964 49.9362 54.6489 49.2375 54.1126 48.36C53.5601 47.4662 52.7964 46.7025 51.9189 46.1337C50.9439 45.5 49.8226 45.0937 48.6689 44.8825C48.0026 44.7525 47.3201 44.6875 46.6376 44.6875C44.2976 44.655 42.0064 45.2075 39.7314 45.76C38.5614 46.0525 37.3751 46.3287 36.2051 46.6212C35.7014 46.7512 35.1976 46.9625 34.6776 46.995C34.1089 47.0275 33.5239 46.9787 32.9714 46.8325C33.0364 46.8487 33.1501 46.9625 33.2151 47.0437C33.1826 47.0437 33.1501 47.0437 33.1339 47.0275L32.7114 46.93C31.2001 46.5725 30.9239 46.3937 30.8589 45.9875C30.7776 45.4675 30.9726 44.8175 31.1839 44.1837C32.6139 40.04 36.2214 35.88 40.8039 33.02C42.0389 32.2562 42.4289 32.4187 42.4776 32.4512C42.5914 32.5162 42.7539 32.8087 42.7376 33.215C42.7376 33.8 42.4451 34.4825 42.1851 35.1487C41.8439 35.9775 42.2501 36.92 43.0789 37.2612C43.9076 37.6025 44.8664 37.1962 45.1914 36.3675C45.5326 35.5225 45.9714 34.4662 45.9876 33.28C46.0201 31.6875 45.2564 30.2737 44.0051 29.5912C42.6401 28.86 40.9826 29.0875 39.0814 30.2737C33.8489 33.54 29.8514 38.22 28.1451 43.1112C27.8039 44.1025 27.4789 45.2725 27.6901 46.5075C28.1289 49.1725 30.5501 49.7575 31.9964 50.0987L32.3864 50.1962C39.9751 52.0812 47.8401 53.235 55.7376 53.6087C57.7201 53.7062 59.7026 53.755 61.6851 53.755ZM102.911 94.9487C101.351 89.1637 98.7189 83.6875 95.2414 78.8125C94.3476 77.025 93.3564 75.3025 92.1864 73.6775C88.5951 68.6725 83.7201 64.545 78.0976 61.75C70.1676 57.8175 64.1551 57.6225 60.2226 61.2137C57.5089 63.6837 57.2976 67.535 57.3301 70.9312L57.4601 87.6525C57.3626 88.0425 57.2814 88.4162 57.1839 88.8062C56.6801 90.805 56.3064 92.8525 55.8839 94.8837C55.6239 96.1512 55.3639 97.4187 55.1039 98.6862C54.7301 100.539 54.3564 102.472 55.1039 104.26C55.9164 106.177 58.3701 107.672 60.9864 107.185C62.3839 106.925 63.7489 106.226 64.3014 105.154C64.7076 104.357 64.6751 103.512 64.6101 102.684C64.1876 96.2 62.8551 89.7487 60.6614 83.4112L60.5639 70.9312C60.5476 68.1037 60.6614 65.2112 62.4001 63.635C65.9589 60.4175 72.1014 62.4162 76.6514 64.675C81.8026 67.2425 86.2714 71.0125 89.5539 75.5787C91.4064 78.1462 92.8689 80.99 93.9576 83.9637C94.8026 87.5712 94.9651 91.3412 94.3476 94.9975C93.9901 97.11 93.4051 99.2062 93.5351 101.335C93.6651 103.464 94.7539 105.722 96.7526 106.47C98.4426 107.104 100.441 106.47 101.709 105.202C102.976 103.919 103.594 102.099 103.675 100.295C103.773 98.4912 103.383 96.7037 102.911 94.965V94.9487Z" fill="white"/>
</g>
<defs>
<clipPath id="clip0_2414_1414">
<rect width="76.05" height="86.125" fill="white" transform="translate(27.625 21.125)"/>
</clipPath>
</defs>
</svg>
