<svg width="130" height="130" viewBox="0 0 130 130" fill="none" xmlns="http://www.w3.org/2000/svg">
<g clip-path="url(#clip0_2414_1393)">
<path d="M73.6601 56.4362C79.4614 56.4362 84.1902 51.7074 84.1902 45.9062C84.1902 40.1049 79.4614 35.3762 73.6601 35.3762C67.8589 35.3762 63.1301 40.1049 63.1301 45.9062C63.1301 51.7074 67.8589 56.4362 73.6601 56.4362ZM73.6601 38.6099C77.6739 38.6099 80.9402 41.8762 80.9402 45.8899C80.9402 49.9037 77.6739 53.1699 73.6601 53.1699C69.6464 53.1699 66.3801 49.9037 66.3801 45.8899C66.3801 41.8762 69.6464 38.6099 73.6601 38.6099ZM103.788 32.0774C103.495 29.9812 101.626 27.9662 99.5302 28.2587C97.1901 28.5837 96.0527 31.2487 95.3864 33.5237C93.8914 38.4799 93.0627 44.6874 90.2189 49.0262L89.0977 52.0162C87.8627 53.8362 86.4976 55.4449 84.9864 56.8424C80.0951 61.3924 73.5789 63.4724 67.9889 62.2862C58.6451 60.2874 57.1664 52.7637 57.9301 43.0949C58.6939 40.0887 59.5876 37.1637 60.6276 34.1412C61.3751 31.9799 62.1226 29.7049 61.8139 27.4299C61.5051 25.1549 59.8151 22.8962 57.5239 22.7499C55.3139 22.6199 53.3964 24.5374 52.7626 26.6499C51.0889 32.1587 52.6814 39.6824 54.5014 45.7112C54.2576 54.4212 56.3864 63.0987 67.3064 65.4387C68.5739 65.7149 69.8576 65.8449 71.1739 65.8449C76.7476 65.8449 82.6139 63.4724 87.1964 59.1987C90.2351 56.3712 92.7376 52.8287 94.8176 48.4737C97.7589 45.3862 100.261 41.9087 102.228 38.1224C103.203 36.2374 104.08 34.1574 103.788 32.0612V32.0774ZM86.9526 92.0074C86.2701 90.1712 85.9776 88.2537 85.3601 86.4174C85.3601 86.3849 85.3276 86.3362 85.3114 86.3036C85.1814 85.3449 85.0189 84.3861 84.7751 83.4436C83.3776 78.1786 79.1851 72.5074 72.9289 71.6624C67.8264 70.9799 63.2114 73.6449 59.2789 76.1799C53.3639 80.0149 47.6601 84.2074 42.1514 88.6599C38.9826 90.3661 35.4564 91.6499 32.3039 93.1287C30.7276 93.8762 29.1189 94.6399 27.8351 95.8424C25.3489 98.1824 25.1214 102.359 28.7126 103.805C33.3439 105.674 37.6501 101.514 39.3889 97.5811C40.1201 95.9399 41.1276 94.3637 42.2001 92.8036C48.2126 87.8149 54.4851 83.1349 61.0339 78.8937C64.4789 76.6674 68.4926 74.3274 72.4901 74.8637C77.2514 75.4974 80.5014 80.0312 81.6226 84.2399C82.4026 87.2137 82.4352 90.3824 82.1914 93.5024C82.0777 93.8599 81.9801 94.2337 81.8501 94.5911C80.7939 97.6461 76.8451 104.715 81.3464 106.844C83.4101 107.819 86.0427 106.876 87.4402 105.072C88.8377 103.269 89.1789 100.815 88.8864 98.5562C88.5939 96.2974 87.7326 94.1362 86.9364 91.9911L86.9526 92.0074Z" fill="white"/>
</g>
<defs>
<clipPath id="clip0_2414_1393">
<rect width="77.8375" height="84.5" fill="white" transform="translate(25.999 22.75)"/>
</clipPath>
</defs>
</svg>
