<svg width="131" height="131" viewBox="0 0 131 131" fill="none" xmlns="http://www.w3.org/2000/svg">
<g clip-path="url(#clip0_2414_1396)">
<path d="M102.72 52.5149C108.714 52.5149 113.577 47.6351 113.577 41.6582C113.577 35.6814 108.714 30.8016 102.72 30.8016C96.7272 30.8016 91.8638 35.6814 91.8638 41.6582C91.8638 47.6351 96.7436 52.5149 102.72 52.5149ZM102.72 34.0766C106.896 34.0766 110.302 37.4826 110.302 41.6582C110.302 45.8339 106.896 49.2399 102.72 49.2399C98.5448 49.2399 95.1388 45.8339 95.1388 41.6582C95.1388 37.4826 98.5448 34.0766 102.72 34.0766ZM66.1878 43.001C72.1811 43.001 77.0445 38.1212 77.0445 32.1444C77.0445 26.1675 72.1811 21.2877 66.1878 21.2877C60.1946 21.2877 55.3312 26.1675 55.3312 32.1444C55.3312 38.1212 60.1946 43.001 66.1878 43.001ZM66.1878 24.5627C70.3635 24.5627 73.7695 27.9687 73.7695 32.1444C73.7695 36.32 70.3635 39.726 66.1878 39.726C62.0122 39.726 58.6062 36.32 58.6062 32.1444C58.6062 27.9687 62.0122 24.5627 66.1878 24.5627ZM25.5942 52.5149C31.5875 52.5149 36.4508 47.6351 36.4508 41.6582C36.4508 35.6814 31.5711 30.8016 25.5942 30.8016C19.6173 30.8016 14.7376 35.665 14.7376 41.6582C14.7376 47.6515 19.601 52.5149 25.5942 52.5149ZM25.5942 34.0766C29.7698 34.0766 33.1758 37.4826 33.1758 41.6582C33.1758 45.8339 29.7698 49.2399 25.5942 49.2399C21.4186 49.2399 18.0126 45.8339 18.0126 41.6582C18.0126 37.4826 21.4186 34.0766 25.5942 34.0766ZM116.263 83.4145C116.263 83.0379 116.23 82.6612 116.197 82.2682C116.41 76.3405 112.922 70.3309 107.06 67.105C100.821 63.6662 92.306 63.5844 85.363 66.9249C84.9208 67.1377 84.4951 67.367 84.0693 67.5962C81.2201 62.8311 76.7988 59.3596 71.7226 58.0005C69.9213 57.5256 68.0055 57.3127 66.0568 57.3946C64.0918 57.3127 62.1923 57.5256 60.3911 58.0005C55.3148 59.3432 50.91 62.8311 48.0443 67.5962C47.6186 67.367 47.1928 67.1377 46.7507 66.9249C39.8241 63.5844 31.3091 63.6499 25.0538 67.105C20.649 69.5449 17.5705 73.5567 16.4242 77.9289C15.8183 79.6319 15.5072 81.4822 15.4581 83.4145C15.3598 87.541 15.4908 91.6347 15.9985 95.7121C16.2768 98.021 16.6698 100.346 17.5213 102.442C18.3565 104.555 19.6992 106.438 21.4677 107.42C23.2362 108.403 25.4796 108.321 27.0188 106.913C28.7382 105.341 29.3113 102.442 28.8692 99.9041C28.4271 97.366 27.1498 95.1717 25.7252 93.2231C24.3006 91.2909 22.6795 89.5387 21.3695 87.4755C20.1577 85.5596 19.4536 83.8075 19.2407 81.384C19.2407 81.2202 19.2407 81.0729 19.2407 80.9091C19.601 76.6189 22.3683 72.3122 26.6422 69.9542C31.9805 67.0067 39.3165 66.974 45.3261 69.856C45.7518 70.0525 46.1612 70.2654 46.5542 70.4946C46.4723 70.7075 46.3741 70.9204 46.2922 71.1332C44.3272 76.1604 43.8523 81.9735 44.8021 89.4077C45.0805 91.5692 45.5062 94.0419 47.0455 96.1215C48.3063 97.7917 50.5497 99.1672 52.9241 99.1672C53.53 99.1672 54.1358 99.0854 54.7253 98.8889C57.0506 98.1356 58.7208 96.056 59.556 92.8465C61.7666 84.2824 58.0822 74.8995 50.779 69.3647C53.2025 65.3037 57.0015 62.258 61.2098 61.1281C62.7491 60.7187 64.3702 60.555 66.0405 60.6369C67.7107 60.5714 69.3318 60.7351 70.8711 61.1281C75.0795 62.2416 78.8785 65.2874 81.302 69.3647C74.0151 74.8995 70.3143 84.2824 72.525 92.8465C73.3601 96.0396 75.0303 98.1356 77.3556 98.8725C77.9615 99.069 78.5673 99.1509 79.1568 99.1509C81.5312 99.1509 83.791 97.7754 85.0355 96.1051C86.5911 94.0419 87.0005 91.5529 87.2788 89.3914C88.2286 81.9571 87.7537 76.144 85.7887 71.1169C85.7068 70.904 85.625 70.6911 85.5267 70.4782C85.9197 70.249 86.3455 70.0361 86.7548 69.8396C92.7645 66.9412 100.1 66.9904 105.439 69.9379C109.008 71.9029 111.53 75.227 112.464 78.7804C112.464 78.8786 112.464 78.9932 112.464 79.0915C112.496 79.8447 112.464 80.6144 112.414 81.3676C112.218 83.7911 111.514 85.5269 110.286 87.4591C108.976 89.5224 107.371 91.2745 105.93 93.2067C104.505 95.139 103.212 97.3496 102.786 99.8877C102.344 102.426 102.917 105.324 104.636 106.896C106.192 108.321 108.419 108.386 110.187 107.404C111.956 106.421 113.299 104.538 114.134 102.426C114.969 100.313 115.362 98.0046 115.657 95.6957C116.164 91.602 116.295 87.5082 116.197 83.3981L116.263 83.4145ZM56.4283 92.0605C56.0517 93.5015 55.2985 95.3027 53.7756 95.794C52.3346 96.2525 50.5825 95.3355 49.7146 94.1729C48.6502 92.7482 48.3227 90.8487 48.0935 89.0147C47.2256 82.17 47.635 76.8809 49.3707 72.3941C55.2985 77.1756 58.2787 84.9537 56.4447 92.0441L56.4283 92.0605ZM84.0857 89.0311C83.8565 90.8487 83.5453 92.7482 82.4646 94.1892C81.5967 95.3519 79.8446 96.2689 78.4036 95.8104C76.8807 95.3191 76.1111 93.5015 75.7508 92.0769C73.9168 84.9865 76.8807 77.2084 82.8248 72.4269C84.5606 76.93 84.97 82.2027 84.1021 89.0475L84.0857 89.0311Z" fill="white"/>
</g>
<defs>
<clipPath id="clip0_2414_1396">
<rect width="100.795" height="86.136" fill="white" transform="translate(14.7376 21.2877) scale(1.00756)"/>
</clipPath>
</defs>
</svg>
