<svg width="130" height="130" viewBox="0 0 130 130" fill="none" xmlns="http://www.w3.org/2000/svg">
<g clip-path="url(#clip0_2414_1402)">
<path d="M64.2037 26.9745C64.415 27.1207 64.6099 27.267 64.805 27.4295C65.3737 27.9332 65.715 28.7457 65.6824 29.5745C65.6662 30.0782 65.5037 30.7932 64.7237 31.4107C64.61 31.5245 64.4799 31.622 64.35 31.7357C64.1062 31.947 63.8624 32.1582 63.6187 32.402C62.9362 33.1007 62.5625 34.0757 62.6112 35.067C62.66 36.0582 63.115 37.0007 63.8787 37.6507C64.1224 37.862 64.3825 38.0407 64.6425 38.2357C64.8537 38.382 65.0487 38.5282 65.2437 38.6907C66.0237 39.3895 66.3325 40.657 65.9587 41.632C65.6337 42.477 66.0562 43.4032 66.8849 43.7282C67.0799 43.8095 67.275 43.842 67.47 43.842C68.1199 43.842 68.7374 43.452 68.9812 42.802C69.8424 40.5595 69.1924 37.862 67.3887 36.2532C67.1124 36.0095 66.82 35.782 66.5112 35.5707C66.3162 35.4407 66.1375 35.3107 65.9587 35.1645C65.8612 35.0832 65.845 34.9695 65.8287 34.9045C65.8287 34.8557 65.8287 34.742 65.91 34.6607C66.0724 34.482 66.2512 34.3357 66.4299 34.1895C66.5924 34.0595 66.7387 33.9132 66.7874 33.8807C68.0875 32.8732 68.8349 31.3782 68.8999 29.6882C68.965 27.9007 68.2337 26.162 66.9337 25.0082C66.6575 24.7645 66.3487 24.537 66.0562 24.3257C65.8774 24.1957 65.6824 24.0657 65.52 23.9195C65.3737 23.8057 65.3737 23.6107 65.4387 23.4807C65.845 22.6845 65.52 21.7095 64.7237 21.3032C63.9275 20.897 62.9524 21.222 62.5462 22.0182C61.7987 23.497 62.1562 25.3007 63.4237 26.3895C63.6675 26.6007 63.9275 26.7795 64.1875 26.9745H64.2037ZM39.2275 38.2357C39.4875 38.6745 39.7312 39.357 39.4062 40.2995C39.3737 40.462 39.325 40.6082 39.2762 40.7707C39.1787 41.0795 39.0975 41.3882 39.0162 41.7295C38.8212 42.6882 39.0325 43.712 39.6012 44.5082C40.17 45.3207 41.0637 45.8732 42.055 46.0032C42.38 46.052 42.6887 46.0682 43.0137 46.0845C43.2737 46.0845 43.5175 46.1007 43.7612 46.1495C44.8012 46.312 45.7437 47.222 45.9549 48.2457C46.1174 49.0095 46.7837 49.5457 47.5475 49.5457C47.6612 49.5457 47.7587 49.5457 47.8724 49.5132C48.75 49.3345 49.3187 48.4732 49.1399 47.5957C48.6524 45.2395 46.6537 43.322 44.265 42.9482C43.9075 42.8832 43.5337 42.867 43.16 42.8507C42.9325 42.8507 42.705 42.8345 42.4775 42.802C42.3475 42.7857 42.2662 42.7045 42.2337 42.6557C42.2012 42.607 42.1525 42.5095 42.1687 42.412C42.2175 42.1682 42.2825 41.9407 42.3475 41.7295C42.4125 41.5345 42.4612 41.3395 42.4775 41.2745C43.03 39.7307 42.8512 38.0732 41.99 36.6107C41.08 35.0832 39.52 34.0107 37.8137 33.7345C37.44 33.6695 37.0825 33.6532 36.7087 33.637C36.4812 33.637 36.2537 33.6207 36.0262 33.5882C35.8962 33.572 35.815 33.4907 35.7825 33.442C35.75 33.3932 35.7012 33.2957 35.7175 33.182C35.7175 33.182 35.7175 33.1332 35.7175 33.117C35.88 32.2395 35.3112 31.4107 34.4337 31.2482C33.5562 31.0695 32.695 31.6707 32.5162 32.5482C32.3212 33.507 32.5325 34.5307 33.1012 35.327C33.67 36.1395 34.5637 36.692 35.555 36.822C35.88 36.8707 36.1887 36.887 36.5137 36.9032C36.7737 36.9032 37.0175 36.9195 37.2775 36.9682C38.025 37.082 38.7562 37.602 39.1625 38.3007L39.2275 38.2357ZM85.2312 66.137C85.4099 65.877 85.5399 65.6657 85.6049 65.5357C86.5962 63.6995 87.0512 61.7495 86.9374 59.897C86.7262 56.322 84.2562 53.2182 81.0549 52.487C78.8937 51.9995 76.5212 52.7795 74.9937 54.372C73.4337 52.1295 71.0774 50.4882 68.4612 49.9032C65.1624 49.1557 61.3599 50.1145 58.9874 52.292C58.9549 52.3245 56.4199 54.8432 55.1199 57.1345C52.6824 56.062 49.6924 56.2732 47.4825 57.8982C45.2562 59.5395 44.2975 62.3182 44.8337 65.0645C43.7775 65.3407 42.7862 65.8282 41.925 66.527C40.0237 68.0545 38.74 70.1832 38.3012 72.507C37.5212 76.6345 39.39 80.7295 43.0787 82.907C44.2812 83.622 46.1337 84.3857 48.165 83.9632C48.555 83.882 48.9287 83.7682 49.2699 83.6057C49.7249 84.9545 50.4724 86.2382 51.4962 87.327C53.7224 89.6995 56.3225 90.1057 59.0037 90.3495C60.6124 90.4957 62.1562 90.3495 63.6674 90.187C64.3012 90.122 64.9512 90.057 65.5849 90.0245C69.29 89.797 72.8812 90.317 73.7424 91.1782C75.0587 92.4782 76.0174 94.997 76.8787 97.2232L77.22 98.1007C77.3175 98.3607 77.4474 98.5882 77.61 98.8158C77.7237 100.294 77.7724 101.789 78.0812 103.236C78.4387 104.974 79.5599 107.737 81.8187 107.201C84.9225 106.453 84.9712 102.878 83.9637 100.489C83.6224 99.677 83.2324 98.832 82.875 97.9545C82.8424 97.8895 82.8262 97.8083 82.7937 97.7432C82.7287 97.597 82.6637 97.4507 82.6149 97.2882C82.8099 96.6382 82.8262 95.907 82.6149 95.2082C81.3637 90.9182 82.6637 87.3107 86.5149 84.4995C87.0187 84.1257 87.5387 83.7845 88.0587 83.4432C89.6837 82.3707 91.3737 81.2495 92.5762 79.4945C94.7862 76.2607 94.4287 71.6782 91.7637 68.8182C90.1387 67.0632 87.7012 66.137 85.2637 66.1532L85.2312 66.137ZM89.8462 77.642C89.0012 78.877 87.6524 79.7707 86.2224 80.7132C85.6537 81.087 85.0849 81.4607 84.5487 81.8507C81.2499 84.272 79.3649 87.262 78.9587 90.642L77.9674 91.5845C77.4149 90.5607 76.7975 89.6182 76.0337 88.8707C74.1975 87.0507 70.0212 86.742 67.34 86.742C66.5275 86.742 65.845 86.7745 65.4062 86.7907C64.7237 86.8232 64.0412 86.8882 63.3587 86.9695C61.945 87.0995 60.5962 87.2295 59.2962 87.1157C56.6962 86.8882 55.2174 86.5307 53.8849 85.117C52.6174 83.7682 51.9674 81.9645 52.0812 80.307L52.9587 78.227C53.3162 77.382 53.6737 76.5045 53.6574 75.5945C53.6412 74.6845 53.1374 73.7095 52.2599 73.4332C51.4962 73.1895 50.635 73.5795 50.115 74.197C49.5949 74.8145 49.3675 75.627 49.2537 76.4232C49.1399 77.2195 49.1399 78.032 48.9937 78.8282C48.8962 79.3807 48.7012 79.9332 48.3924 80.4045C48.1649 80.5995 47.8562 80.7457 47.5475 80.8107C46.7512 80.9732 45.76 80.7295 44.7687 80.1445C42.2825 78.6657 41.015 75.9195 41.535 73.1407C41.8275 71.597 42.7375 70.1182 44.005 69.0782C45.5325 67.8432 47.4499 67.9245 49.2049 68.4607C49.8062 68.737 50.3587 69.192 50.8299 69.6632C51.5124 70.362 52.1137 71.1257 52.8774 71.727C53.6412 72.312 54.6487 72.7182 55.5912 72.4745C56.2575 72.312 56.8424 71.8245 57.1187 71.207C57.3949 70.5895 57.3787 69.8257 57.0699 69.2245C56.8099 68.7207 56.3549 68.3307 55.8837 68.0057C55.2337 67.567 54.5187 67.2582 53.7712 66.982C51.8212 65.8445 49.9362 65.1295 48.165 64.9182C47.6612 63.2445 48.1487 61.5057 49.4487 60.547C51.025 59.377 53.5437 59.5395 54.9737 60.8882C56.4524 63.0657 58.4675 66.0882 59.8325 68.2982C60.7262 69.7445 62.1075 71.2232 63.8137 71.6782C65.3087 72.0682 67.7787 71.2395 67.5837 69.322C67.5024 68.4607 66.9012 67.7132 66.1862 67.2257C65.4712 66.722 64.6587 66.4132 63.8787 66.0395C61.5062 64.902 59.5074 63.082 58.0612 60.8882C57.8987 60.4007 57.7687 59.9132 57.6549 59.4257C57.9149 58.467 60.385 55.4932 61.23 54.7132C62.8225 53.2507 65.5037 52.6007 67.7787 53.1045C69.9074 53.5757 71.8574 55.1357 72.8812 57.1345C73.2712 57.882 74.0187 58.3532 74.8475 58.3857C75.6924 58.3857 76.505 57.9632 76.9437 57.2157C77.5937 56.0945 79.1374 55.4282 80.3724 55.7045C82.1599 56.1107 83.6062 58.012 83.7199 60.1407C83.8012 61.392 83.4599 62.7407 82.7612 64.0245C82.7124 64.1057 82.6149 64.2357 82.5174 64.3982C82.485 64.447 82.4524 64.4957 82.4199 64.5445V64.512C81.4612 66.0557 80.1124 67.8107 78.9424 69.1757C77.7724 70.5407 76.3262 71.7432 74.6525 72.4095C73.7425 72.767 72.7674 72.9782 71.8737 73.352C70.9799 73.7257 70.1024 74.3432 69.7124 75.237C69.1112 76.6345 69.9237 78.3895 71.2887 79.0882C72.6375 79.787 74.3437 79.5757 75.6762 78.8445C77.0087 78.1132 78.0487 76.9107 78.9099 75.6595C79.7874 74.4082 80.5349 73.0757 81.4774 71.8732C82.2087 70.947 83.0862 70.1182 84.1262 69.5657C84.1262 69.5657 84.1424 69.5657 84.1587 69.5657C86.0275 69.1432 88.1237 69.7445 89.3587 71.0607C90.9512 72.767 91.1787 75.7407 89.8624 77.6745L89.8462 77.642ZM98.7837 28.9082C98.3612 28.112 97.3699 27.8195 96.5899 28.242C95.1599 29.022 94.4124 30.6632 94.7862 32.2557C94.8674 32.5645 94.9649 32.8732 95.0624 33.182C95.1437 33.4257 95.2249 33.6532 95.2737 33.897C95.4362 34.6445 95.2249 35.5057 94.7212 36.1395C94.4124 36.5295 93.8599 37.017 92.8687 37.0495C92.7062 37.0657 92.5437 37.082 92.3812 37.0982C92.0562 37.1307 91.7312 37.147 91.3899 37.212C90.4312 37.3745 89.5537 37.9432 89.0012 38.772C88.4487 39.6007 88.2699 40.6245 88.4974 41.6157C88.5787 41.9245 88.6762 42.2332 88.7737 42.542C88.8549 42.7857 88.9362 43.0295 88.9849 43.2732C89.2124 44.297 88.7087 45.4995 87.8149 46.0682C87.0674 46.5557 86.8399 47.5632 87.3274 48.3107C87.6362 48.7982 88.1562 49.0582 88.6924 49.0582C89.0012 49.0582 89.2937 48.977 89.5699 48.7982C91.6012 47.4982 92.6574 44.9307 92.1537 42.5745C92.0724 42.217 91.9587 41.8595 91.8449 41.502C91.7799 41.2907 91.6987 41.0632 91.6499 40.852C91.6174 40.722 91.6662 40.6245 91.6987 40.5757C91.7312 40.527 91.7962 40.4457 91.9099 40.4295C92.1537 40.397 92.3812 40.3807 92.6087 40.3482C92.8199 40.3482 93.0149 40.3157 93.0799 40.2995C94.7212 40.2507 96.1999 39.487 97.2562 38.1545C98.3612 36.757 98.7999 34.9045 98.4262 33.2145C98.3449 32.857 98.2312 32.4995 98.1174 32.1582C98.0524 31.947 97.9712 31.7195 97.9224 31.5082C97.8737 31.3295 97.9874 31.167 98.1012 31.102C98.8974 30.6795 99.1899 29.6882 98.7674 28.9082H98.7837Z" fill="white"/>
</g>
<defs>
<clipPath id="clip0_2414_1402">
<rect width="66.4787" height="86.125" fill="white" transform="translate(32.5 21.125)"/>
</clipPath>
</defs>
</svg>
