<svg width="130" height="130" viewBox="0 0 130 130" fill="none" xmlns="http://www.w3.org/2000/svg">
<g clip-path="url(#clip0_2414_1408)">
<path d="M46.7847 45.7101C46.9472 45.4014 47.1097 45.1089 47.3047 44.8326C48.0847 43.6464 49.1084 42.6226 50.2947 41.8589C50.9447 41.4364 51.6759 41.0626 52.1472 40.4289C52.6184 39.7951 52.7159 38.8039 52.1309 38.3001C51.6759 37.9101 51.0097 37.9426 50.4409 38.0889C48.7022 38.5113 47.2072 39.8601 46.6222 41.5663C46.3297 42.3951 46.2484 43.2564 46.2647 44.1176C46.2647 44.6701 46.1184 45.4176 46.3459 45.9213C46.5572 46.3926 46.6384 46.0514 46.8172 45.7264L46.7847 45.7101ZM38.9034 52.9088C39.0822 53.7538 39.4072 54.5501 39.6834 55.1351C40.4634 56.8414 41.3734 58.4013 42.4459 59.8151C43.0959 60.6763 44.1197 62.0413 45.7609 62.0413C46.0047 62.0413 46.2647 62.0089 46.5247 61.9439C46.8822 61.8626 47.2234 61.7163 47.5809 61.5701C47.8084 61.4726 48.0359 61.3751 48.2797 61.3101C48.4747 61.2613 48.9622 61.4238 49.3522 61.5538C50.2459 61.8626 51.7247 62.3826 52.9597 61.1964C53.4309 60.7413 53.6909 60.1889 53.8859 59.7826C54.1134 59.3276 54.3409 58.8563 54.5684 58.4014C55.0234 57.4751 55.4784 56.5488 55.8847 55.6063C57.0222 52.9738 57.2659 49.2201 54.2272 47.2701C52.9434 46.4576 50.9122 46.0188 49.3034 46.9126C48.7509 47.2213 48.3447 47.6276 47.9872 48.0014C47.6297 48.3589 47.3209 48.6839 47.0284 48.7326C46.6872 48.7976 46.1509 48.5701 45.6147 48.3426C45.0622 48.0989 44.4284 47.8226 43.7134 47.7576C42.3159 47.6276 40.9997 48.0176 40.0897 48.8301C39.0172 49.7888 38.5947 51.2838 38.9359 52.9088H38.9034ZM41.6984 50.6501C42.0884 50.2926 42.7547 50.1138 43.4534 50.1951C43.7784 50.2276 44.1847 50.4063 44.6234 50.5851C45.4034 50.9101 46.3622 51.3326 47.4347 51.1376C48.5072 50.9426 49.1734 50.2601 49.7097 49.7076C49.9697 49.4313 50.2297 49.1876 50.4572 49.0576C51.0747 48.7164 52.1147 48.8301 52.8947 49.3339C55.1534 50.7801 53.9022 54.0139 53.6259 54.6476C53.2359 55.5576 52.7972 56.4514 52.3584 57.3451C52.1309 57.8164 51.8872 58.2876 51.6759 58.7588C51.5459 59.0189 51.4159 59.3276 51.2697 59.4576C51.1559 59.5713 50.9122 59.5226 50.1484 59.2626C49.4659 59.0188 48.6209 58.7426 47.7272 58.9376C47.3534 59.0189 46.9959 59.1651 46.6384 59.3114C46.4109 59.4088 46.1834 59.5063 45.9559 59.5551C45.5009 59.6688 45.1434 59.3276 44.3472 58.2551C43.4372 57.0526 42.6247 55.6551 41.9097 54.1113C41.6984 53.6401 41.4384 53.0226 41.3084 52.4051C41.1947 51.8688 41.1784 51.1051 41.7147 50.6338L41.6984 50.6501ZM108.827 63.3739C107.998 40.4776 89.5222 22.0014 66.6259 21.1726V21.1239H63.3759V21.1726C40.4309 22.0176 21.6459 40.9164 21.1259 64.0401C21.1259 64.2188 21.1747 64.3651 21.2072 64.5276C21.1584 64.6901 21.1097 64.8364 21.1097 65.0151C21.1097 88.6588 39.9109 107.98 63.3597 108.841V108.89H66.6097V108.841C89.5059 107.996 107.982 89.5363 108.827 66.6401H108.876V63.3901H108.827V63.3739ZM63.3759 51.7063C63.3759 51.7063 63.3434 51.8039 63.3272 51.8526C63.2297 52.5026 63.3272 53.2501 63.3272 53.9001C63.3272 56.0938 63.3272 58.3038 63.3272 60.4976C63.3272 65.4701 63.3272 70.4426 63.3272 75.4313C63.3272 76.6501 63.3272 77.8688 63.3272 79.1038C63.3434 79.1038 63.3597 79.1038 63.3759 79.1038V105.624C41.7309 104.763 24.3922 86.8876 24.3922 65.0313C24.3922 64.8688 24.3434 64.7226 24.2947 64.5926C24.3434 64.4463 24.3922 64.3001 24.3922 64.1376C24.8472 42.7364 42.1859 25.2676 63.3759 24.4064V51.7063ZM66.6259 105.591V73.6438C66.8534 72.9776 67.1297 72.3276 67.4384 71.7101C68.4459 69.7438 70.1684 67.5826 72.3134 66.6238H105.61C104.781 87.7326 87.7509 104.746 66.6422 105.591H66.6259ZM73.6622 63.3739C70.8347 62.2363 68.4622 59.7501 67.1297 57.1501C66.9347 56.7601 66.7722 56.3539 66.6097 55.9476V24.4064C87.7184 25.2351 104.748 42.2651 105.577 63.3739H73.6459H73.6622ZM72.7684 89.0001C72.1672 89.2113 71.7609 89.7476 71.7284 90.3813C71.6959 91.0151 72.0534 91.6001 72.6222 91.8763C73.3047 92.2013 73.9547 92.5751 74.6047 92.9651C75.7747 93.8101 76.8472 94.7688 77.8059 95.8413C78.1147 96.1826 78.5372 96.3613 78.9759 96.3613C79.1547 96.3613 79.3334 96.3288 79.5122 96.2639C80.1134 96.0526 80.5197 95.5001 80.5359 94.8663L80.7309 89.9263C80.7309 89.8451 80.8122 89.7963 80.8934 89.7801C85.1509 89.4713 89.1972 87.0826 91.4559 83.5238C92.9347 81.2001 93.6659 78.3888 93.5359 75.6101C93.4547 74.1476 93.0809 72.9776 92.4147 72.1488C92.3334 71.9376 92.2197 71.7426 92.0247 71.5963C90.9034 70.7676 89.3922 70.5726 87.5072 71.0276C84.7934 71.6938 82.3234 73.2051 80.5197 75.2688C77.7572 78.4538 76.6197 83.0038 77.5459 87.1638C77.5622 87.2451 77.5459 87.3426 77.4647 87.3751L72.7847 88.9838L72.7684 89.0001ZM82.3559 76.8938C83.8347 75.1876 85.8659 73.9526 88.0759 73.4163C88.9859 73.1888 89.6847 73.1888 90.2047 73.3838C90.2047 73.3838 90.2209 73.4163 90.2372 73.4326C90.7409 73.8063 91.0334 74.5863 91.0822 75.7563C91.1959 78.0313 90.5947 80.3388 89.3922 82.2401C87.5397 85.1488 84.2084 87.1151 80.7147 87.3751C80.4547 87.3914 80.1947 87.4563 79.9672 87.5539C79.9997 87.2614 79.9997 86.9688 79.9347 86.6763C79.1709 83.2638 80.1134 79.5101 82.3722 76.9101L82.3559 76.8938ZM78.2447 89.7151C78.2447 89.7151 78.2934 89.6988 78.3097 89.6826C78.3097 89.7313 78.2934 89.7963 78.2934 89.8451L78.1797 92.5426C77.5459 92.0389 76.8959 91.5838 76.2297 91.1613C75.9859 90.9826 75.7422 90.8201 75.4984 90.6576L78.2284 89.7151H78.2447ZM88.3034 36.6589C86.7109 36.2851 85.1509 36.5614 83.8997 37.4551C83.4284 37.7964 83.0059 38.2189 82.6647 38.6901C82.2097 38.2026 81.6734 37.7801 81.0722 37.4714C79.2359 36.5126 77.1559 36.6101 75.5147 37.6989C73.7759 38.8526 72.8009 40.9164 72.9797 43.0939C73.1259 44.8976 74.0684 46.6689 75.5797 47.9364C75.7422 48.0826 75.8884 48.1963 76.0184 48.2776C76.0834 48.3263 76.1484 48.3751 76.1484 48.3264C76.1484 48.3589 76.1484 48.4401 76.1484 48.5538V57.6051H90.6759V48.9763C90.6759 48.4997 90.8222 47.9959 91.1147 47.4651L91.2122 47.2864C91.3422 47.0426 91.5209 46.7989 91.6834 46.5713C91.8622 46.3113 92.0572 46.0676 92.2197 45.7914C93.2922 44.0039 93.3572 41.6476 92.3984 39.7951C91.5859 38.2351 90.0584 37.0651 88.3034 36.6426V36.6589ZM90.1397 44.5401C90.0097 44.7513 89.8634 44.9464 89.7334 45.1414C89.5059 45.4501 89.2784 45.7751 89.0997 46.1001L89.0022 46.2788C88.3034 47.5301 88.2547 47.7414 88.2709 48.9926V55.1676H78.6184V48.5538C78.6184 47.2538 78.1309 46.7989 77.5134 46.3113C77.4159 46.2301 77.3022 46.1489 77.1722 46.0514C76.1647 45.2064 75.5309 44.0526 75.4334 42.8826C75.3359 41.5989 75.8884 40.3801 76.8797 39.7301C77.7897 39.1289 78.9272 39.0801 79.9672 39.6326C80.7797 40.0551 81.4134 40.8189 81.6897 41.7289L82.0309 42.7039L83.9972 42.4601L84.1109 41.5014C84.2084 40.6889 84.6634 39.9251 85.3297 39.4539C85.9959 38.9826 86.8572 38.8364 87.7509 39.0476C88.8072 39.3076 89.7659 40.0389 90.2534 40.9651C90.8384 42.0864 90.7897 43.5001 90.1559 44.5726L90.1397 44.5401ZM32.5659 66.5751C32.3222 67.0951 32.4034 67.7289 32.7772 68.1676C34.5484 70.2476 36.5797 72.0839 38.7897 73.6601C37.5872 75.2039 37.1809 76.9913 37.6847 78.7301C38.4159 81.2488 40.4309 83.0038 42.0559 84.4176L51.4484 92.5751C52.0497 93.0951 52.7809 93.7288 53.7234 94.0701C54.1297 94.2163 54.5359 94.2813 54.9422 94.2813C55.7872 94.2813 56.5834 93.9726 57.1197 93.4038C58.5659 91.9251 57.7047 89.6501 57.4284 88.9026L53.3984 78.2913C52.2447 75.2363 50.7334 71.8888 47.4672 70.7188C46.2484 70.2801 44.8022 70.2801 43.4047 70.6538L40.1222 61.1314C39.9434 60.4814 39.2772 59.9938 38.6597 60.0588C37.9934 60.0751 37.4084 60.5464 37.2622 61.1964L36.1734 65.7626L33.9309 65.7139C33.3947 65.6976 32.8097 66.0388 32.5659 66.5751ZM45.4522 72.7988C45.8909 72.7988 46.2972 72.8638 46.6709 72.9938C48.9622 73.8063 50.1809 76.5851 51.1397 79.1363L55.1697 89.7476C55.6897 91.1126 55.5272 91.5351 55.3972 91.6813C55.2509 91.8276 54.8772 91.8438 54.5522 91.7463C54.0484 91.5676 53.5447 91.1288 53.0572 90.7226L43.6647 82.5651C41.9097 81.0376 40.5284 79.7376 40.0409 78.0476C39.5859 76.4388 40.6259 75.1551 41.2759 74.5376C42.4297 73.4488 44.0547 72.7988 45.4522 72.7988ZM38.1072 68.2326L38.8872 64.9663L41.1784 71.6126C40.9834 71.7263 40.8047 71.8401 40.6097 71.9701C39.0009 70.8489 37.4897 69.5976 36.1084 68.2163L38.1072 68.2488V68.2326Z" fill="white"/>
</g>
<defs>
<clipPath id="clip0_2414_1408">
<rect width="87.7487" height="87.7487" fill="white" transform="translate(21.1273 21.1239)"/>
</clipPath>
</defs>
</svg>
