<svg width="130" height="130" viewBox="0 0 130 130" fill="none" xmlns="http://www.w3.org/2000/svg">
<g clip-path="url(#clip0_2414_1399)">
<path d="M61.5221 48.0518C62.1884 48.0518 62.8059 47.9218 63.3584 47.8081L65.7796 47.2718C66.2509 47.1743 66.7221 47.0606 67.1121 47.1743C67.3559 47.2393 67.8109 47.3693 67.5509 48.6368C67.3071 49.8556 67.0796 51.1068 66.9009 52.3418C66.8684 52.5368 66.8359 52.7156 66.7871 52.8943C66.6246 53.6418 66.4134 54.5681 67.1284 55.4618C67.5996 56.0468 68.3309 56.3718 69.0621 56.3718C69.3709 56.3718 69.6959 56.3068 69.9884 56.1931C70.6709 55.9168 71.3534 55.0718 70.7684 52.6831L70.5246 51.7081C70.2809 50.7168 70.0209 49.6931 69.8746 48.7018C69.7121 47.5643 69.8421 47.3206 70.3134 47.1906C70.7034 47.0768 71.1909 47.1906 71.6621 47.2881L74.0671 47.8081C74.6196 47.9381 75.2534 48.0518 75.9196 48.0518C76.7159 48.0356 77.3984 47.7756 77.8696 47.3206C78.6171 46.6218 78.8121 45.4681 78.3246 44.5743C77.3496 42.6731 74.7984 43.4043 73.1246 43.8918C72.7996 43.9893 72.4909 44.0706 72.2471 44.1193C71.4834 44.2818 70.8821 44.2818 70.4271 44.0868C69.3221 43.6318 69.6796 42.3318 70.3946 40.2356C70.9309 38.6918 71.4834 37.0993 70.8496 35.9781C70.5409 35.4256 69.9884 35.0518 69.2246 34.8731C69.0459 34.8243 68.8671 34.8081 68.7046 34.8243C68.5421 34.8243 68.3796 34.8243 68.2009 34.8731C67.4209 35.0518 66.8684 35.4256 66.5596 35.9781C65.9259 37.0993 66.4784 38.7081 67.0146 40.2356C67.7296 42.3318 68.1034 43.6318 66.9984 44.0868C66.5434 44.2818 65.9421 44.2818 65.1784 44.1193C64.9346 44.0706 64.6259 43.9731 64.3009 43.8918C62.6109 43.4043 60.0759 42.6731 59.1009 44.5743C58.6134 45.4681 58.8084 46.6381 59.5559 47.3206C60.0271 47.7756 60.7096 48.0356 61.5059 48.0518H61.5221ZM80.9246 63.0506C80.6646 63.1643 80.3071 63.1643 79.8358 63.0506C79.6734 63.0181 79.4621 62.9531 79.2346 62.8881C77.9996 62.5306 75.9359 61.9456 75.1071 63.5543C74.6846 64.3343 74.8633 65.3418 75.4971 65.9431C75.9034 66.3331 76.4721 66.5443 77.1384 66.5768C77.6584 66.6093 78.1459 66.4793 78.5359 66.3981L80.2746 66.0243C80.5671 65.9593 80.8596 65.8943 81.1358 65.9756C81.1358 65.9756 81.2171 66.1056 81.1358 66.5768C80.9571 67.4543 80.7946 68.3481 80.6646 69.2418C80.6483 69.3718 80.6158 69.4856 80.5834 69.6156C80.4534 70.2006 80.2746 70.9806 80.9084 71.7443C81.3146 72.2481 81.9484 72.5243 82.5659 72.5243C82.8421 72.5243 83.1021 72.4756 83.3621 72.3618C83.9796 72.1018 84.5971 71.3868 84.1421 69.4368L83.9633 68.7381C83.7846 68.0393 83.6058 67.3243 83.5083 66.6256C83.4433 66.1706 83.4596 66.0243 83.5733 65.9431C83.7683 65.8943 84.0608 65.9431 84.3533 66.0243L86.0759 66.3981C86.4659 66.4793 86.9696 66.5931 87.4896 66.5768C88.1558 66.5606 88.7246 66.3331 89.1146 65.9593C89.7646 65.3418 89.9271 64.3506 89.5046 63.5706C88.6596 61.9456 86.6121 62.5468 85.3771 62.9043C85.1496 62.9693 84.9383 63.0343 84.7758 63.0668C84.3046 63.1643 83.9471 63.1643 83.6871 63.0668C83.2646 62.8881 83.3134 62.4006 83.8658 60.7756C84.2721 59.6056 84.6946 58.3868 84.1584 57.4443C83.8821 56.9568 83.4108 56.6318 82.7771 56.4856C82.6146 56.4531 82.4683 56.4368 82.3221 56.4368C82.1758 56.4368 82.0296 56.4368 81.8833 56.4856C81.2171 56.6318 80.7458 56.9568 80.4858 57.4443C79.9658 58.3868 80.3721 59.6056 80.7783 60.7756C81.3471 62.4006 81.3796 62.9043 80.9734 63.0668L80.9246 63.0506ZM93.8108 88.2868C93.3233 87.7018 92.6571 87.3281 91.9096 87.2793C90.9834 87.2143 89.9758 87.5881 89.0821 88.3681C84.9546 91.9756 77.7721 93.7793 69.8584 93.1943C63.2121 92.7068 56.9071 90.0906 52.1296 85.8331C42.5909 77.3506 39.4384 62.2706 44.6384 49.9043C44.9146 49.2543 45.2559 48.4418 45.1909 47.4831C45.0934 45.7281 44.1184 45.1431 43.5496 44.9318C42.3959 44.5418 40.6896 44.7206 36.7084 49.2056C30.3221 56.3556 27.1209 65.5693 27.6896 75.1406C28.2421 84.7118 32.4996 93.4868 39.6659 99.8568C43.0134 102.831 46.8159 105.138 50.9921 106.682C54.9084 108.144 59.0359 108.843 63.1959 108.843C73.9859 108.843 84.8896 104.114 92.2508 95.6156C93.5346 94.1368 95.1758 91.8781 94.4609 89.5218C94.3146 89.0506 94.1033 88.6281 93.8271 88.2868H93.8108ZM89.7808 93.4706C80.4371 104.228 64.9509 108.404 52.1134 103.627C48.3271 102.213 44.8659 100.133 41.8271 97.4193C35.3109 91.6343 31.4596 83.6393 30.9396 74.9456C30.4359 66.2518 33.3446 57.8668 39.1459 51.3506C40.1534 50.2131 40.9334 49.4656 41.5184 48.9618C35.9771 62.4493 39.5034 78.9431 49.9846 88.2543C55.2984 92.9831 62.2696 95.8756 69.6309 96.4281C73.8234 96.7368 84.3533 96.8181 91.2271 90.8056C91.2758 90.7568 91.3246 90.7243 91.3733 90.6918C91.3733 91.0981 91.1296 91.9431 89.7971 93.4706H89.7808ZM103.073 36.2381C101.741 33.6543 97.3371 35.5718 95.3058 36.0106C94.2821 36.2381 93.1771 36.3193 92.2021 35.9293C87.1971 33.8656 96.6546 24.1806 90.6096 22.8156C90.4308 22.7668 90.2521 22.7506 90.0733 22.7668C89.8946 22.7506 89.7158 22.7668 89.5371 22.8156C83.4921 24.1806 92.9496 33.8818 87.9446 35.9293C86.9696 36.3193 85.8646 36.2381 84.8408 36.0106C82.8096 35.5718 78.4059 33.6381 77.0734 36.2381C76.5696 37.1968 76.7809 38.4481 77.5609 39.1793C78.1621 39.7481 78.9746 39.9756 79.7871 39.9918C80.5996 40.0081 81.4283 39.8293 82.2246 39.6668C83.3783 39.4231 84.5321 39.1631 85.6696 38.9193C86.4496 38.7406 87.2458 38.5618 87.9934 38.7893C89.4559 39.1956 89.4721 40.5931 89.2121 41.8443C88.8546 43.5831 88.5459 45.3381 88.2859 47.0931C88.0909 48.4256 87.4571 49.6931 88.4483 50.8956C89.1796 51.7893 90.5121 52.1306 91.5683 51.6756C92.9333 51.1068 92.4459 48.6043 92.2021 47.6131C91.7471 45.6956 91.1946 43.7781 90.9184 41.8443C90.7234 40.5606 90.6096 39.2118 92.1208 38.7568C92.8683 38.5293 93.6646 38.7081 94.4446 38.8868C95.5983 39.1306 96.7521 39.3906 97.8896 39.6343C98.6859 39.8131 99.4984 39.9918 100.327 39.9593C101.14 39.9431 101.968 39.7156 102.553 39.1468C103.333 38.4156 103.545 37.1643 103.041 36.2056L103.073 36.2381Z" fill="white"/>
</g>
<defs>
<clipPath id="clip0_2414_1399">
<rect width="75.725" height="86.0925" fill="white" transform="translate(27.625 22.7502)"/>
</clipPath>
</defs>
</svg>
