<svg width="130" height="130" viewBox="0 0 130 130" fill="none" xmlns="http://www.w3.org/2000/svg">
<g clip-path="url(#clip0_2414_1405)">
<path d="M39.5209 86.3202C40.3009 83.5902 41.7146 80.5352 44.2984 78.2439C45.4359 77.2365 46.7359 76.4077 48.1171 75.5302C49.9209 74.3927 51.8059 73.2064 53.3496 71.5327C55.8359 68.8352 57.1359 65.1952 56.9246 61.5389C56.6971 57.8827 54.9746 54.4214 52.1634 52.0489C51.1721 51.2039 50.0996 50.5539 49.0596 49.9039C47.7759 49.1077 46.5734 48.3602 45.6471 47.3852C44.2009 45.8414 43.3234 43.5014 43.1771 40.7714C43.1121 39.4877 43.1934 38.1714 43.3721 36.8714C43.6646 34.8889 44.0384 32.9227 44.5096 30.9727C44.8184 29.7052 45.1596 28.6164 45.0946 27.3002C45.0296 26.1302 44.6721 24.9602 43.8921 24.0827C42.0559 22.0189 38.0421 22.2789 37.4246 25.3664C37.2459 26.2927 37.4246 27.2514 37.5871 28.1777C38.4159 32.5489 39.2446 36.9039 39.9596 41.2914C40.1871 44.6389 41.3571 47.6127 43.2746 49.6439C44.4934 50.9439 45.9396 51.8377 47.3371 52.6989C48.3121 53.3002 49.2384 53.8852 50.0509 54.5677C52.1471 56.3389 53.4959 59.0364 53.6584 61.7664C53.8209 64.4964 52.8134 67.3402 50.9446 69.3552C49.6934 70.7039 48.0684 71.7277 46.3621 72.8164C44.9321 73.7264 43.4371 74.6527 42.1046 75.8552C37.9121 79.5927 36.2871 84.8414 35.6696 88.5789C35.3121 90.7564 35.1821 92.9339 35.1821 95.0952C34.9059 96.8014 34.6459 98.5077 34.3696 100.214C34.1421 101.611 33.9309 103.09 34.3371 104.439C35.1334 107.055 38.6271 107.949 40.2034 105.479C40.8209 104.504 40.9996 103.301 41.0484 102.148C41.1946 98.7352 40.4634 95.339 39.9434 91.9589C39.6671 90.1064 39.4721 88.2214 39.5046 86.3527L39.5209 86.3202ZM55.1534 81.4289C54.6821 82.1927 54.9421 83.2002 55.7059 83.6552C58.4684 85.3289 61.1334 86.1739 63.6684 86.1739C64.0259 86.1739 64.3671 86.1739 64.7084 86.1252C69.7459 85.6539 74.1171 81.1527 74.4584 76.0989C74.5234 75.2052 73.8409 74.4252 72.9471 74.3764C72.0534 74.3277 71.2734 74.9939 71.2246 75.8877C70.9971 79.4139 67.9421 82.5664 64.4159 82.9077C62.3196 83.1189 59.9471 82.4364 57.3959 80.8927C56.6321 80.4214 55.6246 80.6814 55.1696 81.4452L55.1534 81.4289ZM83.2821 49.4327C83.9321 48.7339 84.8909 47.6939 85.8659 46.6702C86.8409 45.6302 87.8321 44.5902 88.4821 43.8752C89.0834 43.2089 89.0346 42.1852 88.3846 41.5839C87.7184 40.9827 86.6946 41.0314 86.0934 41.6814C85.4434 42.3802 84.4846 43.4202 83.5096 44.4439C82.5346 45.4839 81.5434 46.5239 80.8934 47.2389C80.8609 47.2714 80.7959 47.3527 80.7309 47.4177C80.6659 47.3689 80.6009 47.3202 80.5196 47.2389L78.2446 45.2402C77.5784 44.6552 76.5384 44.7202 75.9534 45.3864C75.3684 46.0527 75.4334 47.0927 76.0996 47.6777L78.3746 49.6764C78.7809 50.0339 79.6259 50.7652 80.7634 50.7652C80.8284 50.7652 80.8934 50.7652 80.9746 50.7652C82.1609 50.6839 82.8921 49.8552 83.2984 49.4327H83.2821ZM96.5259 45.9552C96.5259 38.0739 90.1071 31.6552 82.2259 31.6552C75.4984 31.6552 69.8596 36.3027 68.3321 42.5427C66.2521 41.5839 63.9771 41.0314 61.5396 41.0802C60.4346 41.0964 59.3621 41.2427 58.3221 41.3889C57.4609 41.5027 56.6484 41.6164 55.8359 41.6652C54.5359 41.7302 52.7971 41.5839 51.6759 40.5927C51.0421 40.0239 50.6359 39.1627 50.4409 38.1552C50.6034 37.0664 51.0096 35.9614 51.4159 34.9702C52.0659 33.3939 52.8784 31.8827 53.5121 30.3064C53.9509 29.2339 54.2921 28.1289 54.3084 27.0077C54.3084 25.8702 53.9509 24.7164 53.0896 23.8714C52.2284 23.0264 50.8471 22.5552 49.5959 22.8639C48.3446 23.1727 47.4509 24.2127 47.0934 25.3014C46.7196 26.3902 46.7846 27.5602 46.8334 28.6977C46.8984 29.8027 47.0446 30.8914 47.0609 31.9964C47.0771 33.7189 46.8659 35.4577 47.0934 37.1477C47.1259 39.5202 47.9709 41.6489 49.4984 42.9977C51.0421 44.3789 53.3009 45.0289 55.9984 44.8827C56.9571 44.8502 57.8671 44.7202 58.7609 44.5902C59.7521 44.4602 60.6784 44.3302 61.6046 44.3139H61.8321C64.0259 44.3139 66.0734 44.9314 67.9096 45.9552C67.9096 52.4227 72.2484 57.9152 78.1796 59.6539C80.8121 66.7389 81.3321 73.9052 79.5121 79.4627C77.3346 86.109 71.7934 90.6752 65.3909 91.0652C61.2796 91.3252 58.2409 89.7002 54.7146 87.8314C53.8859 87.3927 53.0409 86.9539 52.1796 86.5314C50.9609 85.9302 49.5796 85.8652 48.3121 86.3527C47.4671 86.6614 46.7034 87.1977 46.0371 87.8964L45.8259 87.8639C42.4946 91.9102 42.7221 97.6952 42.9171 102.586C42.9496 103.61 43.0634 104.666 43.5509 105.576C44.5259 107.429 47.2234 107.835 48.6046 106.178C49.3196 105.316 49.5796 104.179 49.6609 103.058C49.7584 101.725 49.6284 100.376 49.2871 99.0764C48.9459 97.8252 48.4259 96.6552 48.0196 95.4202C47.5809 94.0714 47.4346 92.7552 47.5971 91.3902C47.5971 91.3739 47.5971 91.3577 47.6134 91.3414C47.9871 90.4152 48.7021 89.6677 49.4496 89.3914C49.9046 89.2127 50.3271 89.2452 50.7334 89.4402C51.5784 89.8627 52.3909 90.2852 53.1871 90.7077C57.0059 92.7227 60.5971 94.6239 65.5859 94.3152C73.3371 93.8277 80.0159 88.4002 82.5996 80.4702C84.5009 74.6852 84.1759 67.4539 81.8359 60.2227C81.9659 60.2389 82.0959 60.2389 82.2259 60.2389C90.1071 60.2389 96.5259 53.8202 96.5259 45.9389V45.9552ZM80.5846 56.8589C79.0084 56.6477 77.5621 56.0952 76.2784 55.2664C73.9384 53.7714 72.1996 51.4314 71.5171 48.6689C71.2734 47.7914 71.1596 46.8977 71.1596 45.9552C71.1596 45.3864 71.2084 44.8339 71.3059 44.2977C72.0859 38.9839 76.6846 34.9052 82.2259 34.9052C88.3196 34.9052 93.2759 39.8614 93.2759 45.9552C93.2759 52.0489 88.3196 57.0052 82.2259 57.0052C81.6734 57.0052 81.1209 56.9564 80.5846 56.8589Z" fill="white"/>
</g>
<defs>
<clipPath id="clip0_2414_1405">
<rect width="62.4" height="84.5" fill="white" transform="translate(34.126 22.7505)"/>
</clipPath>
</defs>
</svg>
